<mxfile host="app.diagrams.net" modified="2023-08-16T10:15:28.614Z" agent="Mozilla/5.0 (Windows NT 10.0; Win64; x64) AppleWebKit/537.36 (KHTML, like Gecko) Chrome/115.0.0.0 Safari/537.36" version="21.6.8" etag="Hmiu301ZLmTxASD2m9tJ" type="github">
  <diagram name="Страница — 1" id="b2JYyz74kCbqDgd_1WJP">
    <mxGraphModel>
      <root>
        <mxCell id="0" />
        <mxCell id="1" parent="0" />
      </root>
    </mxGraphModel>
  </diagram>
</mxfile>
